# xmcd
#
# Track frame offsets:
#        150
#        19785
#        37470
#        60857
#        82777
#        100167
#        124847
#        148740
#        173000
#        209865
#        234165
#        258192
#        264352
#
# Disc length: 3830 seconds
#
# Revision: 0
# Processed by: cddbd v1.5.1PL2 Copyright (c) Steve Scherf et al.
# Submitted via: ExactAudioCopy v0.95a5
#
DISCID=ac0ef40d
DTITLE=Royksopp - The Understanding [Bonus Track]
DYEAR=1900
DGENRE=Eurodance
TTITLE0=Triumphant
TTITLE1=Only This Moment
TTITLE2=49 Percent
TTITLE3=Sombre Detune
TTITLE4=Follow My Ruin
TTITLE5=Beautiful Day Without You
TTITLE6=What Else Is There?
TTITLE7=Circuit Breaker
TTITLE8=Alpha Male
TTITLE9=Someone Like Me
TTITLE10=Dead To The World
TTITLE11=Tristesse Globale
TTITLE12=Curves
EXTD=
EXTT0=
EXTT1=
EXTT2=
EXTT3=
EXTT4=
EXTT5=
EXTT6=
EXTT7=
EXTT8=
EXTT9=
EXTT10=
EXTT11=
EXTT12=
PLAYORDER=
